<svg width="12" height="13" viewBox="0 0 12 13" fill="none" xmlns="http://www.w3.org/2000/svg">
<path d="M5.19116 12.0804C4.87844 12.0805 4.5665 12.049 4.26008 11.9866C3.66921 11.8655 3.10794 11.6293 2.60832 11.2915C1.86554 10.79 1.28413 10.0839 0.934527 9.25874C0.816338 8.9793 0.726108 8.68885 0.665156 8.39164C0.54 7.77723 0.54 7.1439 0.665156 6.52949C0.786187 5.93862 1.02238 5.37735 1.36026 4.87773C1.8617 4.13495 2.56779 3.55354 3.39298 3.20394C3.67242 3.08575 3.96287 2.99552 4.26008 2.93457C4.87449 2.80941 5.50782 2.80941 6.12223 2.93457C6.7131 3.0556 7.27437 3.29179 7.77399 3.62967C8.51677 4.13111 9.09818 4.8372 9.44779 5.66239C9.56597 5.94183 9.6562 6.23228 9.71716 6.52949C9.84023 7.13411 9.84216 7.75713 9.72284 8.3625C9.62051 8.88319 9.42809 9.38203 9.15425 9.83657C8.74413 10.5214 8.16339 11.0881 7.46877 11.4814C6.77415 11.8747 5.98939 12.0811 5.19116 12.0804ZM6.78251 5.29636C6.70765 5.2963 6.63351 5.31102 6.56436 5.33969C6.4952 5.36835 6.43238 5.41038 6.37952 5.46338L4.76471 7.07605C4.65774 7.18322 4.59771 7.32848 4.59785 7.4799C4.59798 7.63132 4.65826 7.77648 4.76542 7.88346C4.87258 7.99043 5.01785 8.05045 5.16927 8.05032C5.32069 8.05019 5.46585 7.98991 5.57282 7.88275L6.37952 7.07605L7.18621 6.27007C7.26685 6.19067 7.32195 6.089 7.34448 5.97809C7.367 5.86718 7.35591 5.75207 7.31263 5.6475C7.26935 5.54293 7.19585 5.45365 7.10154 5.3911C7.00722 5.32854 6.89639 5.29555 6.78322 5.29636H6.78251Z" fill="url(#paint0_linear_1067_368)"/>
<path d="M2.92993 0.596737C2.92993 0.436512 2.99358 0.282849 3.10688 0.169552C3.22017 0.0562561 3.37384 -0.00739324 3.53406 -0.00739324L7.15884 -0.00739324C7.31907 -0.00739324 7.47273 0.0562561 7.58603 0.169552C7.69932 0.282849 7.76297 0.436512 7.76297 0.596737C7.76297 0.756962 7.69932 0.910625 7.58603 1.02392C7.47273 1.13722 7.31907 1.20087 7.15884 1.20087L3.53406 1.20087C3.37384 1.20087 3.22017 1.13722 3.10688 1.02392C2.99358 0.910625 2.92993 0.756962 2.92993 0.596737V0.596737Z" fill="url(#paint1_linear_1067_368)"/>
<path d="M9.13047 1.725C9.24749 1.60797 9.40622 1.54223 9.57172 1.54223C9.73722 1.54223 9.89595 1.60797 10.013 1.725L10.8101 2.52208C10.9271 2.63911 10.9928 2.79783 10.9928 2.96334C10.9928 3.12884 10.9271 3.28756 10.8101 3.40459C10.693 3.52162 10.5343 3.58737 10.3688 3.58737C10.2033 3.58737 10.0446 3.52162 9.92754 3.40459L9.13047 2.60752C9.01344 2.49049 8.94769 2.33176 8.94769 2.16626C8.94769 2.00076 9.01344 1.84203 9.13047 1.725Z" fill="url(#paint2_linear_1067_368)"/>
<defs>
<linearGradient id="paint0_linear_1067_368" x1="5.1911" y1="2.8407" x2="5.1911" y2="12.0804" gradientUnits="userSpaceOnUse">
<stop stop-color="#ECC9AC"/>
<stop offset="1" stop-color="#D06E3F"/>
</linearGradient>
<linearGradient id="paint1_linear_1067_368" x1="2.92993" y1="0.596737" x2="7.76297" y2="0.596737" gradientUnits="userSpaceOnUse">
<stop stop-color="#ECC9AC"/>
<stop offset="1" stop-color="#D06E3F"/>
</linearGradient>
<linearGradient id="paint2_linear_1067_368" x1="9.13047" y1="1.725" x2="10.8101" y2="3.40459" gradientUnits="userSpaceOnUse">
<stop stop-color="#ECC9AC"/>
<stop offset="1" stop-color="#D06E3F"/>
</linearGradient>
</defs>
</svg>
