<svg width="24" height="24" viewBox="0 0 24 24" fill="none" xmlns="http://www.w3.org/2000/svg">
<path d="M18.7905 8.18407L18.8955 8.28907C19.4579 8.85166 19.7738 9.61458 19.7738 10.4101C19.7738 11.2056 19.4579 11.9685 18.8955 12.5311L12.531 18.8941C12.2524 19.1728 11.9216 19.3939 11.5576 19.5447C11.1935 19.6955 10.8033 19.7732 10.4092 19.7732C10.0152 19.7732 9.62496 19.6955 9.2609 19.5447C8.89685 19.3939 8.56608 19.1728 8.28749 18.8941L8.18249 18.7891L7.72799 21.3601C7.68047 21.6304 7.55969 21.8825 7.3788 22.089C7.19791 22.2954 6.96384 22.4482 6.70209 22.5308C6.44034 22.6135 6.16094 22.6227 5.89431 22.5575C5.62769 22.4923 5.38407 22.3552 5.18999 22.1611L1.83899 18.8101C1.6449 18.616 1.50779 18.3724 1.44259 18.1057C1.37739 17.8391 1.3866 17.5597 1.46921 17.298C1.55182 17.0362 1.70466 16.8022 1.9111 16.6213C2.11754 16.4404 2.36965 16.3196 2.63999 16.2721L5.21249 15.8191L5.10599 15.7126C4.82728 15.434 4.60619 15.1032 4.45535 14.7392C4.30451 14.3751 4.22688 13.9849 4.22688 13.5908C4.22688 13.1968 4.30451 12.8065 4.45535 12.4425C4.60619 12.0784 4.82728 11.7477 5.10599 11.4691L11.469 5.10607C11.7476 4.82737 12.0783 4.60628 12.4424 4.45544C12.8065 4.3046 13.1967 4.22696 13.5907 4.22696C13.9848 4.22696 14.375 4.3046 14.7391 4.45544C15.1031 4.60628 15.4339 4.82737 15.7125 5.10607L15.8175 5.21107L16.272 2.64457C16.3198 2.37418 16.4408 2.12209 16.622 1.91577C16.8032 1.70945 17.0375 1.55682 17.2994 1.47451C17.5614 1.39219 17.8409 1.38336 18.1075 1.44897C18.3741 1.51457 18.6176 1.6521 18.8115 1.84657L22.1535 5.19907C22.3467 5.39335 22.4831 5.63686 22.5477 5.90317C22.6124 6.16947 22.6028 6.4484 22.5201 6.70965C22.4374 6.97091 22.2847 7.20452 22.0786 7.38512C21.8725 7.56571 21.6208 7.6864 21.351 7.73407L18.7905 8.18407ZM5.92799 12.8416H16.4085V12.8941L17.8335 11.4691C18.1105 11.1929 18.2683 10.8192 18.273 10.4281H8.26799L6.16649 12.5311C6.07325 12.6236 5.99256 12.728 5.92649 12.8416H5.92799ZM5.92799 14.3416C5.99249 14.4526 6.07199 14.5561 6.16649 14.6521L9.34799 17.8336C9.62928 18.1148 10.0107 18.2728 10.4085 18.2728C10.8062 18.2728 11.1877 18.1148 11.469 17.8336L14.9625 14.3416H5.92799ZM17.4135 8.92807L14.652 6.16657C14.3707 5.88537 13.9892 5.72739 13.5915 5.72739C13.1937 5.72739 12.8123 5.88537 12.531 6.16657L9.76799 8.92807H17.4135ZM2.89949 17.7496L6.25049 21.1006L6.82049 17.8756C6.83717 17.7805 6.83069 17.6829 6.80159 17.5909C6.7725 17.4989 6.72164 17.4152 6.65333 17.3471C6.58503 17.2789 6.50129 17.2282 6.40923 17.1993C6.31716 17.1704 6.21949 17.1642 6.12449 17.1811L2.89949 17.7496ZM17.7495 2.90557L17.1795 6.12757C17.1629 6.22247 17.1693 6.31996 17.1984 6.41183C17.2274 6.50369 17.2781 6.58721 17.3462 6.65533C17.4144 6.72345 17.4979 6.77417 17.5897 6.80319C17.6816 6.83221 17.7791 6.83869 17.874 6.82207L21.0915 6.25807L17.748 2.90557H17.7495Z" fill="#7D4226"/>
</svg>
